<?xml version="1.0" ?><svg fill="none" height="1080" viewBox="0 0 1080 1080" width="1080" xmlns="http://www.w3.org/2000/svg"><path d="M757.5 445C757.5 407.721 787.721 377.5 825 377.5C862.279 377.5 892.5 407.721 892.5 445C892.5 482.279 862.279 512.5 825 512.5H757.5V445Z" stroke="url(#paint0_linear)" stroke-width="25"/><path d="M567.5 270C567.5 232.721 597.721 202.5 635 202.5C672.279 202.5 702.5 232.721 702.5 270V445C702.5 482.279 672.279 512.5 635 512.5C597.721 512.5 567.5 482.279 567.5 445V270Z" stroke="url(#paint1_linear)" stroke-width="25"/><path d="M634 757.5C671.279 757.5 701.5 787.721 701.5 825C701.5 862.279 671.279 892.5 634 892.5C596.721 892.5 566.5 862.279 566.5 825V757.5H634Z" stroke="url(#paint2_linear)" stroke-width="25"/><path d="M809 567.5C846.279 567.5 876.5 597.721 876.5 635C876.5 672.279 846.279 702.5 809 702.5H634C596.721 702.5 566.5 672.279 566.5 635C566.5 597.721 596.721 567.5 634 567.5H809Z" stroke="url(#paint3_linear)" stroke-width="25"/><path d="M320.5 635C320.5 672.279 290.279 702.5 253 702.5C215.721 702.5 185.5 672.279 185.5 635C185.5 597.721 215.721 567.5 253 567.5H320.5V635Z" stroke="url(#paint4_linear)" stroke-width="25"/><path d="M510.5 810C510.5 847.279 480.279 877.5 443 877.5C405.721 877.5 375.5 847.279 375.5 810V635C375.5 597.721 405.721 567.5 443 567.5C480.279 567.5 510.5 597.721 510.5 635L510.5 810Z" stroke="url(#paint5_linear)" stroke-width="25"/><path d="M443 322.5C405.721 322.5 375.5 292.279 375.5 255C375.5 217.721 405.721 187.5 443 187.5C480.279 187.5 510.5 217.721 510.5 255V322.5H443Z" stroke="url(#paint6_linear)" stroke-width="25"/><path d="M268 512.5C230.721 512.5 200.5 482.279 200.5 445C200.5 407.721 230.721 377.5 268 377.5H443C480.279 377.5 510.5 407.721 510.5 445C510.5 482.279 480.279 512.5 443 512.5H268Z" stroke="url(#paint7_linear)" stroke-width="25"/><defs><linearGradient gradientUnits="userSpaceOnUse" id="paint0_linear" x1="825" x2="833.5" y1="365" y2="682.5"><stop stop-color="#35B680"/><stop offset="1" stop-color="#EBB23A"/></linearGradient><linearGradient gradientUnits="userSpaceOnUse" id="paint1_linear" x1="635" x2="635" y1="190" y2="787.5"><stop stop-color="#35B680"/><stop offset="1" stop-color="#EBB23A"/></linearGradient><linearGradient gradientUnits="userSpaceOnUse" id="paint2_linear" x1="714" x2="286.5" y1="825" y2="835"><stop stop-color="#EBB23A"/><stop offset="1" stop-color="#DE1E59"/></linearGradient><linearGradient gradientUnits="userSpaceOnUse" id="paint3_linear" x1="889" x2="3.00003" y1="635" y2="635"><stop stop-color="#EBB23A"/><stop offset="1" stop-color="#DE1E59"/></linearGradient><linearGradient gradientUnits="userSpaceOnUse" id="paint4_linear" x1="253" x2="253" y1="715" y2="458"><stop stop-color="#DE1E59"/><stop offset="1" stop-color="#3CC5EF"/></linearGradient><linearGradient gradientUnits="userSpaceOnUse" id="paint5_linear" x1="443" x2="443" y1="890" y2="397.5"><stop stop-color="#DE1E59"/><stop offset="1" stop-color="#3CC5EF"/></linearGradient><linearGradient gradientUnits="userSpaceOnUse" id="paint6_linear" x1="363" x2="615.5" y1="255" y2="255"><stop stop-color="#3CC5EF"/><stop offset="1" stop-color="#35B680"/></linearGradient><linearGradient gradientUnits="userSpaceOnUse" id="paint7_linear" x1="188" x2="601.5" y1="445" y2="445"><stop stop-color="#3CC5EF"/><stop offset="1" stop-color="#35B680"/></linearGradient></defs></svg>